<svg xmlns="http://www.w3.org/2000/svg" width="357" height="208.5" viewBox="0 0 357 208.5">
<defs><style>.a{stroke:#000;stroke-linecap:round;stroke-miterlimit:10;stroke-width:5px;}</style></defs><title>cart_nowheels</title><path class="a" d="M91.5,206c-4.2-16.7-7-33.8-9.9-50.8C75.9,122.5,70.9,89.7,65,57c-3-16.9-5-34.1-8.7-51.5H2.5v-3H59l7.9,46.9H334.4c10.8,0,16.1,3.9,19.2,14.2a14.0119,14.0119,0,0,0,.9,1.7v8c-8,28.5-16.1,57.1-24,85.7-3.9,13.8-10.6,19.4-24.9,20.9L187,193.6l-85.8,10.3L91.5,206m1-4.1,68.8-8.2,144.9-16.8c12.3-1.5,18-6.2,21.3-18.2,7-25.4,14.2-50.8,21.3-76.2a70.0046,70.0046,0,0,0,2.4-12.1,16.4,16.4,0,0,0-16.7-18.3c-87,.4-174,.3-261,.3H67.3C75.8,102.5,84.1,152,92.5,201.9Z"/></svg>