<svg id="Layer_1" data-name="Layer 1" xmlns="http://www.w3.org/2000/svg" viewBox="0 0 280.3 316.2"><defs><style>.cls-1{stroke:#000;stroke-miterlimit:10;stroke-width:5px;}</style></defs><title>profile</title><path class="cls-1" d="M274.6,313.7c-3.7-15.3-6.3-30.8-11.2-45.6-10.2-30.3-26.4-57.2-50.7-78.5s-51.2-31.8-83.2-28.4c-22.1,2.3-41.4,11.7-58.3,25.8-30,25.3-47.6,58.2-58.3,95.3-3,10.2-4.8,20.9-7.1,31.4h-3a215.3,215.3,0,0,1,16.9-61c12-27.7,28.4-52.2,52.6-70.8,45.9-35.4,102.3-32.5,144.8,7,28.7,26.8,45.5,60.3,55.5,97.7,1.8,6.7,3.3,13.4,5,20.1a17,17,0,0,0,.1,4.5C278.4,314.3,276.3,313.6,274.6,313.7Z"/><path class="cls-1" d="M208.1,72.3c-.2,38-31.6,68.9-69.7,68.6s-68.9-31.2-68.8-70S101.1,2.2,139.5,2.5A69.3,69.3,0,0,1,208.1,72.3Zm-3-.5a66.3,66.3,0,1,0-66,66.1C175.4,137.8,205.2,107.9,205.1,71.8Z"/></svg>